<svg width="200" height="200" viewBox="0 0 200 200" xmlns="http://www.w3.org/2000/svg">
  <!-- Cabeza del gato -->
  <path d="M 50 60 Q 100 20, 150 60 Q 170 80, 150 150 Q 100 180, 50 150 Q 30 80, 50 60 Z" fill="#808080" stroke="#000000" stroke-width="2"/>

  <!-- Orejas -->
  <polygon points="60,30 40,70 80,50" fill="#808080" stroke="#000000" stroke-width="2"/>
  <polygon points="140,30 160,70 120,50" fill="#808080" stroke="#000000" stroke-width="2"/>

  <!-- Ojos -->
  <ellipse cx="70" cy="90" rx="15" ry="25" fill="#FFFFFF" stroke="#000000" stroke-width="2"/>
  <ellipse cx="130" cy="90" rx="15" ry="25" fill="#FFFFFF" stroke="#000000" stroke-width="2"/>
  
  <!-- Pupilas -->
  <circle cx="70" cy="90" r="7" fill="#000000"/>
  <circle cx="130" cy="90" r="7" fill="#000000"/>

  <!-- Nariz -->
  <polygon points="90,110 110,110 100,130" fill="#000000" stroke="#000000" stroke-width="2"/>

  <!-- Boca -->
  <path d="M 85 140 Q 100 150, 115 140" stroke="#000000" stroke-width="2" fill="none"/>
  <path d="M 85 140 Q 100 145, 115 140" stroke="#000000" stroke-width="2" fill="none"/>

  <!-- Bigotes -->
  <line x1="50" y1="110" x2="80" y2="120" stroke="#000000" stroke-width="2"/>
  <line x1="50" y1="130" x2="80" y2="130" stroke="#000000" stroke-width="2"/>
  <line x1="50" y1="150" x2="80" y2="140" stroke="#000000" stroke-width="2"/>
  
  <line x1="150" y1="110" x2="120" y2="120" stroke="#000000" stroke-width="2"/>
  <line x1="150" y1="130" x2="120" y2="130" stroke="#000000" stroke-width="2"/>
  <line x1="150" y1="150" x2="120" y2="140" stroke="#000000" stroke-width="2"/>
</svg>
